<svg width="375" height="812" viewBox="0 0 375 812" fill="none" xmlns="http://www.w3.org/2000/svg">
<g clip-path="url(#clip0_746_2429)">
<rect width="375" height="812" fill="white"/>
<g filter="url(#filter0_d_746_2429)">
<rect y="38" width="375" height="54" fill="white"/>
</g>
<rect x="11" y="47" width="354" height="36" rx="18" fill="#E8EAED"/>
<path d="M341.004 67.9156C341.463 67.9156 341.835 67.5141 341.835 67.0539V58.763L341.764 57.5331L342.215 58.169L343.252 59.3319C343.386 59.4908 343.592 59.5829 343.79 59.5829C344.186 59.5829 344.518 59.2733 344.518 58.8383C344.518 58.6207 344.439 58.4534 344.296 58.2944L341.653 55.6089C341.432 55.383 341.226 55.3077 341.004 55.3077C340.79 55.3077 340.577 55.383 340.363 55.6089L337.72 58.2944C337.569 58.4534 337.49 58.6207 337.49 58.8383C337.49 59.2733 337.823 59.5829 338.21 59.5829C338.416 59.5829 338.622 59.4908 338.764 59.3319L339.793 58.169L340.252 57.5331L340.181 58.763V67.0539C340.181 67.5141 340.545 67.9156 341.004 67.9156ZM336.43 74.6923H345.571C347.336 74.6923 348.269 73.7051 348.269 71.8561V63.7325C348.269 61.8836 347.336 60.8964 345.571 60.8964H343.489V62.8122H345.404C346.085 62.8122 346.465 63.1803 346.465 63.9417V71.6554C346.465 72.4083 346.085 72.7764 345.404 72.7764H336.596C335.907 72.7764 335.543 72.4083 335.543 71.6554V63.9417C335.543 63.1803 335.907 62.8122 336.596 62.8122H338.543V60.8964H336.43C334.673 60.8964 333.731 61.8836 333.731 63.7325V71.8561C333.731 73.7051 334.673 74.6923 336.43 74.6923Z" fill="#9AA0A6"/>
<path d="M82.6807 70.8932H88.1475C88.8882 70.8932 89.25 70.5157 89.25 69.6899V65.3605C89.25 64.6173 88.9514 64.2339 88.337 64.169V62.6826C88.337 60.4589 86.9186 59.3854 85.4141 59.3854C83.9095 59.3854 82.4912 60.4589 82.4912 62.6826V64.1985C81.9284 64.287 81.5781 64.6645 81.5781 65.3605V69.6899C81.5781 70.5157 81.9399 70.8932 82.6807 70.8932ZM83.4157 62.5588C83.4157 61.0783 84.3402 60.2938 85.4141 60.2938C86.4879 60.2938 87.4124 61.0783 87.4124 62.5588V64.1631L83.4157 64.169V62.5588Z" fill="black"/>
<path d="M103.438 71.216C102.706 71.216 102.118 71.006 101.674 70.586C101.242 70.166 101.026 69.662 101.026 69.074C101.026 68.462 101.182 67.982 101.494 67.634C101.818 67.286 102.238 67.028 102.754 66.86C103.282 66.692 103.852 66.578 104.464 66.518C105.088 66.458 105.694 66.41 106.282 66.374V64.952C106.282 64.388 106.138 63.95 105.85 63.638C105.574 63.314 105.1 63.152 104.428 63.152C104.092 63.152 103.774 63.26 103.474 63.476C103.186 63.692 103.042 64.004 103.042 64.412C103.042 64.604 103.09 64.766 103.186 64.898C103.282 65.03 103.378 65.132 103.474 65.204C103.57 65.276 103.618 65.324 103.618 65.348C103.618 65.396 103.546 65.486 103.402 65.618C103.27 65.738 103.084 65.798 102.844 65.798C102.472 65.798 102.184 65.66 101.98 65.384C101.776 65.108 101.674 64.802 101.674 64.466C101.674 64.01 101.812 63.65 102.088 63.386C102.376 63.122 102.742 62.93 103.186 62.81C103.63 62.69 104.08 62.63 104.536 62.63C105.076 62.63 105.598 62.696 106.102 62.828C106.618 62.96 107.038 63.212 107.362 63.584C107.698 63.956 107.866 64.514 107.866 65.258V69.452C107.878 69.572 107.908 69.716 107.956 69.884C108.004 70.052 108.094 70.202 108.226 70.334C108.37 70.454 108.562 70.514 108.802 70.514C108.886 70.514 108.952 70.532 109 70.568C109.048 70.592 109.072 70.67 109.072 70.802C109.072 70.91 109.012 70.994 108.892 71.054C108.772 71.114 108.634 71.156 108.478 71.18C108.322 71.204 108.19 71.216 108.082 71.216C107.638 71.216 107.242 71.09 106.894 70.838C106.546 70.574 106.342 70.214 106.282 69.758C106.018 70.238 105.622 70.604 105.094 70.856C104.578 71.096 104.026 71.216 103.438 71.216ZM104.014 70.244C104.422 70.244 104.794 70.142 105.13 69.938C105.478 69.734 105.754 69.458 105.958 69.11C106.174 68.75 106.282 68.354 106.282 67.922V66.896C105.046 66.98 104.164 67.178 103.636 67.49C103.108 67.802 102.844 68.312 102.844 69.02C102.844 69.836 103.234 70.244 104.014 70.244ZM110.244 71.054C110.16 71.054 110.088 71.018 110.028 70.946C109.98 70.862 109.956 70.778 109.956 70.694C109.968 70.514 110.01 70.418 110.082 70.406C110.166 70.382 110.262 70.37 110.37 70.37C110.706 70.37 110.934 70.316 111.054 70.208C111.186 70.088 111.258 69.932 111.27 69.74C111.294 69.548 111.306 69.35 111.306 69.146V65.024C111.306 64.808 111.294 64.61 111.27 64.43C111.258 64.238 111.192 64.088 111.072 63.98C110.952 63.86 110.724 63.8 110.388 63.8C110.28 63.8 110.178 63.788 110.082 63.764C109.998 63.728 109.956 63.62 109.956 63.44C109.956 63.26 110.052 63.152 110.244 63.116C110.796 63.032 111.216 62.948 111.504 62.864C111.804 62.78 112.026 62.708 112.17 62.648C112.326 62.588 112.464 62.552 112.584 62.54C112.68 62.528 112.758 62.546 112.818 62.594C112.89 62.642 112.926 62.738 112.926 62.882V64.016H112.98C113.22 63.788 113.454 63.572 113.682 63.368C113.91 63.152 114.186 62.978 114.51 62.846C114.834 62.702 115.248 62.63 115.752 62.63C116.34 62.63 116.844 62.756 117.264 63.008C117.684 63.248 117.99 63.584 118.182 64.016H118.218C118.458 63.788 118.71 63.572 118.974 63.368C119.238 63.152 119.55 62.978 119.91 62.846C120.27 62.702 120.702 62.63 121.206 62.63C122.022 62.63 122.67 62.876 123.15 63.368C123.63 63.86 123.87 64.508 123.87 65.312V69.146C123.87 69.35 123.876 69.548 123.888 69.74C123.912 69.932 123.984 70.088 124.104 70.208C124.236 70.316 124.47 70.37 124.806 70.37C124.914 70.37 125.004 70.382 125.076 70.406C125.16 70.418 125.208 70.514 125.22 70.694C125.22 70.778 125.196 70.862 125.148 70.946C125.1 71.018 125.028 71.054 124.932 71.054C124.584 71.03 124.26 71.012 123.96 71C123.672 71 123.366 71 123.042 71C122.718 71 122.412 71 122.124 71C121.836 71.012 121.518 71.03 121.17 71.054C121.074 71.054 121.002 71.018 120.954 70.946C120.906 70.862 120.882 70.778 120.882 70.694C120.894 70.514 120.936 70.418 121.008 70.406C121.092 70.382 121.188 70.37 121.296 70.37C121.632 70.37 121.86 70.316 121.98 70.208C122.112 70.088 122.184 69.932 122.196 69.74C122.22 69.548 122.232 69.35 122.232 69.146V65.33C122.232 64.934 122.142 64.61 121.962 64.358C121.794 64.106 121.578 63.92 121.314 63.8C121.05 63.68 120.78 63.62 120.504 63.62C120.096 63.62 119.748 63.698 119.46 63.854C119.172 63.998 118.944 64.166 118.776 64.358C118.608 64.55 118.488 64.718 118.416 64.862V69.146C118.416 69.35 118.416 69.548 118.416 69.74C118.428 69.932 118.488 70.088 118.596 70.208C118.716 70.316 118.944 70.37 119.28 70.37C119.4 70.37 119.496 70.382 119.568 70.406C119.64 70.418 119.682 70.514 119.694 70.694C119.694 70.778 119.67 70.862 119.622 70.946C119.574 71.018 119.502 71.054 119.406 71.054C119.058 71.03 118.746 71.012 118.47 71C118.194 71 117.894 71 117.57 71C117.258 71 116.964 71 116.688 71C116.424 71.012 116.118 71.03 115.77 71.054C115.674 71.054 115.602 71.018 115.554 70.946C115.506 70.862 115.482 70.778 115.482 70.694C115.494 70.514 115.536 70.418 115.608 70.406C115.68 70.382 115.776 70.37 115.896 70.37C116.232 70.37 116.454 70.316 116.562 70.208C116.682 70.088 116.742 69.932 116.742 69.74C116.754 69.548 116.76 69.35 116.76 69.146V65.33C116.76 64.73 116.58 64.298 116.22 64.034C115.86 63.758 115.47 63.62 115.05 63.62C114.63 63.62 114.276 63.698 113.988 63.854C113.7 63.998 113.472 64.166 113.304 64.358C113.136 64.55 113.016 64.718 112.944 64.862V69.146C112.944 69.35 112.95 69.548 112.962 69.74C112.986 69.932 113.058 70.088 113.178 70.208C113.31 70.316 113.544 70.37 113.88 70.37C113.988 70.37 114.078 70.382 114.15 70.406C114.234 70.418 114.282 70.514 114.294 70.694C114.294 70.778 114.27 70.862 114.222 70.946C114.174 71.018 114.102 71.054 114.006 71.054C113.658 71.03 113.334 71.012 113.034 71C112.746 71 112.44 71 112.116 71C111.792 71 111.486 71 111.198 71C110.91 71.012 110.592 71.03 110.244 71.054ZM126.095 74.744C126.011 74.744 125.939 74.702 125.879 74.618C125.831 74.546 125.807 74.468 125.807 74.384C125.819 74.204 125.861 74.102 125.933 74.078C126.017 74.066 126.113 74.06 126.221 74.06C126.545 74.06 126.767 74 126.887 73.88C127.019 73.772 127.097 73.622 127.121 73.43C127.145 73.238 127.157 73.04 127.157 72.836V65.024C127.157 64.808 127.145 64.61 127.121 64.43C127.109 64.238 127.043 64.088 126.923 63.98C126.803 63.86 126.575 63.8 126.239 63.8C126.131 63.8 126.029 63.788 125.933 63.764C125.849 63.728 125.807 63.62 125.807 63.44C125.807 63.26 125.903 63.152 126.095 63.116C126.647 63.032 127.067 62.948 127.355 62.864C127.655 62.78 127.877 62.708 128.021 62.648C128.177 62.588 128.315 62.552 128.435 62.54C128.531 62.528 128.609 62.546 128.669 62.594C128.741 62.642 128.777 62.738 128.777 62.882V63.746H128.831C129.167 63.434 129.569 63.17 130.037 62.954C130.505 62.738 130.955 62.63 131.387 62.63C132.119 62.63 132.767 62.81 133.331 63.17C133.895 63.53 134.339 64.034 134.663 64.682C134.987 65.318 135.149 66.062 135.149 66.914C135.149 67.778 134.951 68.534 134.555 69.182C134.159 69.83 133.649 70.334 133.025 70.694C132.401 71.042 131.735 71.216 131.027 71.216C130.487 71.216 130.049 71.156 129.713 71.036C129.389 70.928 129.107 70.802 128.867 70.658H128.795V72.836C128.795 73.04 128.807 73.238 128.831 73.43C128.855 73.622 128.933 73.772 129.065 73.88C129.197 74 129.419 74.06 129.731 74.06C129.839 74.06 129.929 74.066 130.001 74.078C130.085 74.102 130.133 74.204 130.145 74.384C130.145 74.468 130.121 74.546 130.073 74.618C130.025 74.702 129.953 74.744 129.857 74.744C129.509 74.72 129.185 74.702 128.885 74.69C128.597 74.69 128.291 74.69 127.967 74.69C127.643 74.69 127.337 74.69 127.049 74.69C126.761 74.702 126.443 74.72 126.095 74.744ZM130.883 70.604C131.351 70.604 131.741 70.49 132.053 70.262C132.365 70.022 132.611 69.722 132.791 69.362C132.983 68.99 133.115 68.594 133.187 68.174C133.271 67.742 133.313 67.34 133.313 66.968C133.313 66.404 133.223 65.864 133.043 65.348C132.875 64.82 132.599 64.388 132.215 64.052C131.843 63.704 131.351 63.53 130.739 63.53C130.283 63.53 129.905 63.626 129.605 63.818C129.305 63.998 129.035 64.214 128.795 64.466V69.29C128.927 69.602 129.167 69.902 129.515 70.19C129.875 70.466 130.331 70.604 130.883 70.604ZM136.466 71.054C136.382 71.054 136.31 71.018 136.25 70.946C136.202 70.862 136.178 70.778 136.178 70.694C136.19 70.514 136.232 70.418 136.304 70.406C136.388 70.382 136.484 70.37 136.592 70.37C136.928 70.37 137.156 70.316 137.276 70.208C137.408 70.088 137.48 69.932 137.492 69.74C137.516 69.548 137.528 69.35 137.528 69.146V60.362C137.528 60.146 137.516 59.948 137.492 59.768C137.48 59.576 137.414 59.426 137.294 59.318C137.174 59.198 136.946 59.138 136.61 59.138C136.502 59.138 136.4 59.126 136.304 59.102C136.22 59.066 136.178 58.958 136.178 58.778C136.178 58.598 136.274 58.49 136.466 58.454C137.018 58.37 137.438 58.286 137.726 58.202C138.026 58.118 138.254 58.046 138.41 57.986C138.566 57.926 138.704 57.89 138.824 57.878C138.92 57.866 138.998 57.884 139.058 57.932C139.13 57.98 139.166 58.076 139.166 58.22V69.146C139.166 69.35 139.172 69.548 139.184 69.74C139.208 69.932 139.28 70.088 139.4 70.208C139.532 70.316 139.766 70.37 140.102 70.37C140.21 70.37 140.3 70.382 140.372 70.406C140.456 70.418 140.504 70.514 140.516 70.694C140.516 70.778 140.492 70.862 140.444 70.946C140.396 71.018 140.324 71.054 140.228 71.054C139.88 71.03 139.556 71.012 139.256 71C138.968 71 138.662 71 138.338 71C138.014 71 137.708 71 137.42 71C137.132 71.012 136.814 71.03 136.466 71.054ZM145.741 71.216C144.817 71.216 144.037 71.018 143.401 70.622C142.777 70.226 142.309 69.698 141.997 69.038C141.685 68.378 141.529 67.658 141.529 66.878C141.529 66.35 141.619 65.84 141.799 65.348C141.991 64.844 142.261 64.388 142.609 63.98C142.957 63.56 143.377 63.23 143.869 62.99C144.361 62.75 144.919 62.63 145.543 62.63C146.647 62.63 147.475 62.918 148.027 63.494C148.591 64.058 148.915 64.778 148.999 65.654C148.999 66.074 148.879 66.35 148.639 66.482C148.411 66.614 148.111 66.68 147.739 66.68H143.365C143.365 67.376 143.461 68 143.653 68.552C143.845 69.092 144.145 69.524 144.553 69.848C144.973 70.16 145.525 70.316 146.209 70.316C146.713 70.316 147.145 70.208 147.505 69.992C147.865 69.776 148.213 69.398 148.549 68.858C148.645 68.738 148.777 68.732 148.945 68.84C149.041 68.888 149.101 68.966 149.125 69.074C149.149 69.17 149.137 69.254 149.089 69.326C148.717 69.914 148.249 70.376 147.685 70.712C147.121 71.048 146.473 71.216 145.741 71.216ZM143.365 65.996H146.299C146.587 65.996 146.815 65.942 146.983 65.834C147.163 65.714 147.259 65.516 147.271 65.24C147.271 64.724 147.127 64.268 146.839 63.872C146.563 63.464 146.131 63.26 145.543 63.26C144.943 63.26 144.439 63.5 144.031 63.98C143.635 64.46 143.413 65.132 143.365 65.996ZM151.32 67.418C151.2 67.418 151.098 67.352 151.014 67.22C150.942 67.088 150.906 66.962 150.906 66.842C150.906 66.71 150.942 66.584 151.014 66.464C151.098 66.332 151.2 66.266 151.32 66.266H155.262C155.394 66.266 155.496 66.332 155.568 66.464C155.64 66.584 155.676 66.71 155.676 66.842C155.676 66.962 155.64 67.088 155.568 67.22C155.496 67.352 155.394 67.418 155.262 67.418H151.32ZM160.535 71.216C159.611 71.216 158.837 71.054 158.213 70.73C157.601 70.394 157.295 69.914 157.295 69.29C157.295 68.942 157.397 68.66 157.601 68.444C157.817 68.228 158.093 68.12 158.429 68.12C158.645 68.12 158.819 68.18 158.951 68.3C159.095 68.408 159.167 68.486 159.167 68.534C159.167 68.57 159.095 68.654 158.951 68.786C158.819 68.906 158.753 69.104 158.753 69.38C158.753 69.716 158.909 69.998 159.221 70.226C159.545 70.442 160.031 70.55 160.679 70.55C161.243 70.55 161.681 70.43 161.993 70.19C162.317 69.938 162.479 69.59 162.479 69.146C162.479 68.786 162.359 68.51 162.119 68.318C161.891 68.114 161.591 67.952 161.219 67.832C160.859 67.712 160.469 67.592 160.049 67.472C159.641 67.352 159.251 67.202 158.879 67.022C158.507 66.842 158.201 66.596 157.961 66.284C157.733 65.96 157.619 65.534 157.619 65.006C157.619 64.466 157.781 64.022 158.105 63.674C158.429 63.326 158.843 63.068 159.347 62.9C159.851 62.72 160.361 62.63 160.877 62.63C161.321 62.63 161.741 62.696 162.137 62.828C162.533 62.948 162.857 63.134 163.109 63.386C163.373 63.638 163.505 63.956 163.505 64.34C163.505 64.64 163.409 64.91 163.217 65.15C163.025 65.39 162.761 65.51 162.425 65.51C162.209 65.51 162.029 65.456 161.885 65.348C161.753 65.228 161.687 65.144 161.687 65.096C161.687 65.072 161.729 65.03 161.813 64.97C161.909 64.898 161.999 64.808 162.083 64.7C162.167 64.58 162.209 64.43 162.209 64.25C162.185 63.902 162.017 63.644 161.705 63.476C161.393 63.308 161.045 63.224 160.661 63.224C160.241 63.224 159.851 63.326 159.491 63.53C159.131 63.734 158.951 64.028 158.951 64.412C158.951 64.76 159.023 65.03 159.167 65.222C159.323 65.414 159.563 65.582 159.887 65.726C160.223 65.858 160.655 66.008 161.183 66.176C161.711 66.344 162.173 66.518 162.569 66.698C162.977 66.878 163.289 67.118 163.505 67.418C163.733 67.706 163.847 68.102 163.847 68.606C163.847 69.11 163.703 69.56 163.415 69.956C163.127 70.352 162.731 70.664 162.227 70.892C161.735 71.108 161.171 71.216 160.535 71.216ZM167.616 71.216C166.884 71.216 166.296 71.006 165.852 70.586C165.42 70.166 165.204 69.662 165.204 69.074C165.204 68.462 165.36 67.982 165.672 67.634C165.996 67.286 166.416 67.028 166.932 66.86C167.46 66.692 168.03 66.578 168.642 66.518C169.266 66.458 169.872 66.41 170.46 66.374V64.952C170.46 64.388 170.316 63.95 170.028 63.638C169.752 63.314 169.278 63.152 168.606 63.152C168.27 63.152 167.952 63.26 167.652 63.476C167.364 63.692 167.22 64.004 167.22 64.412C167.22 64.604 167.268 64.766 167.364 64.898C167.46 65.03 167.556 65.132 167.652 65.204C167.748 65.276 167.796 65.324 167.796 65.348C167.796 65.396 167.724 65.486 167.58 65.618C167.448 65.738 167.262 65.798 167.022 65.798C166.65 65.798 166.362 65.66 166.158 65.384C165.954 65.108 165.852 64.802 165.852 64.466C165.852 64.01 165.99 63.65 166.266 63.386C166.554 63.122 166.92 62.93 167.364 62.81C167.808 62.69 168.258 62.63 168.714 62.63C169.254 62.63 169.776 62.696 170.28 62.828C170.796 62.96 171.216 63.212 171.54 63.584C171.876 63.956 172.044 64.514 172.044 65.258V69.452C172.056 69.572 172.086 69.716 172.134 69.884C172.182 70.052 172.272 70.202 172.404 70.334C172.548 70.454 172.74 70.514 172.98 70.514C173.064 70.514 173.13 70.532 173.178 70.568C173.226 70.592 173.25 70.67 173.25 70.802C173.25 70.91 173.19 70.994 173.07 71.054C172.95 71.114 172.812 71.156 172.656 71.18C172.5 71.204 172.368 71.216 172.26 71.216C171.816 71.216 171.42 71.09 171.072 70.838C170.724 70.574 170.52 70.214 170.46 69.758C170.196 70.238 169.8 70.604 169.272 70.856C168.756 71.096 168.204 71.216 167.616 71.216ZM168.192 70.244C168.6 70.244 168.972 70.142 169.308 69.938C169.656 69.734 169.932 69.458 170.136 69.11C170.352 68.75 170.46 68.354 170.46 67.922V66.896C169.224 66.98 168.342 67.178 167.814 67.49C167.286 67.802 167.022 68.312 167.022 69.02C167.022 69.836 167.412 70.244 168.192 70.244ZM174.421 71.054C174.337 71.054 174.265 71.018 174.205 70.946C174.157 70.862 174.133 70.778 174.133 70.694C174.145 70.514 174.187 70.418 174.259 70.406C174.343 70.382 174.439 70.37 174.547 70.37C174.883 70.37 175.111 70.316 175.231 70.208C175.363 70.088 175.435 69.932 175.447 69.74C175.471 69.548 175.483 69.35 175.483 69.146V65.024C175.483 64.808 175.471 64.61 175.447 64.43C175.435 64.238 175.369 64.088 175.249 63.98C175.129 63.86 174.901 63.8 174.565 63.8C174.457 63.8 174.355 63.788 174.259 63.764C174.175 63.728 174.133 63.62 174.133 63.44C174.133 63.26 174.229 63.152 174.421 63.116C174.973 63.032 175.393 62.948 175.681 62.864C175.981 62.78 176.203 62.708 176.347 62.648C176.503 62.588 176.641 62.552 176.761 62.54C176.857 62.528 176.935 62.546 176.995 62.594C177.067 62.642 177.103 62.738 177.103 62.882V64.016H177.157C177.397 63.788 177.631 63.572 177.859 63.368C178.087 63.152 178.363 62.978 178.687 62.846C179.011 62.702 179.425 62.63 179.929 62.63C180.517 62.63 181.021 62.756 181.441 63.008C181.861 63.248 182.167 63.584 182.359 64.016H182.395C182.635 63.788 182.887 63.572 183.151 63.368C183.415 63.152 183.727 62.978 184.087 62.846C184.447 62.702 184.879 62.63 185.383 62.63C186.199 62.63 186.847 62.876 187.327 63.368C187.807 63.86 188.047 64.508 188.047 65.312V69.146C188.047 69.35 188.053 69.548 188.065 69.74C188.089 69.932 188.161 70.088 188.281 70.208C188.413 70.316 188.647 70.37 188.983 70.37C189.091 70.37 189.181 70.382 189.253 70.406C189.337 70.418 189.385 70.514 189.397 70.694C189.397 70.778 189.373 70.862 189.325 70.946C189.277 71.018 189.205 71.054 189.109 71.054C188.761 71.03 188.437 71.012 188.137 71C187.849 71 187.543 71 187.219 71C186.895 71 186.589 71 186.301 71C186.013 71.012 185.695 71.03 185.347 71.054C185.251 71.054 185.179 71.018 185.131 70.946C185.083 70.862 185.059 70.778 185.059 70.694C185.071 70.514 185.113 70.418 185.185 70.406C185.269 70.382 185.365 70.37 185.473 70.37C185.809 70.37 186.037 70.316 186.157 70.208C186.289 70.088 186.361 69.932 186.373 69.74C186.397 69.548 186.409 69.35 186.409 69.146V65.33C186.409 64.934 186.319 64.61 186.139 64.358C185.971 64.106 185.755 63.92 185.491 63.8C185.227 63.68 184.957 63.62 184.681 63.62C184.273 63.62 183.925 63.698 183.637 63.854C183.349 63.998 183.121 64.166 182.953 64.358C182.785 64.55 182.665 64.718 182.593 64.862V69.146C182.593 69.35 182.593 69.548 182.593 69.74C182.605 69.932 182.665 70.088 182.773 70.208C182.893 70.316 183.121 70.37 183.457 70.37C183.577 70.37 183.673 70.382 183.745 70.406C183.817 70.418 183.859 70.514 183.871 70.694C183.871 70.778 183.847 70.862 183.799 70.946C183.751 71.018 183.679 71.054 183.583 71.054C183.235 71.03 182.923 71.012 182.647 71C182.371 71 182.071 71 181.747 71C181.435 71 181.141 71 180.865 71C180.601 71.012 180.295 71.03 179.947 71.054C179.851 71.054 179.779 71.018 179.731 70.946C179.683 70.862 179.659 70.778 179.659 70.694C179.671 70.514 179.713 70.418 179.785 70.406C179.857 70.382 179.953 70.37 180.073 70.37C180.409 70.37 180.631 70.316 180.739 70.208C180.859 70.088 180.919 69.932 180.919 69.74C180.931 69.548 180.937 69.35 180.937 69.146V65.33C180.937 64.73 180.757 64.298 180.397 64.034C180.037 63.758 179.647 63.62 179.227 63.62C178.807 63.62 178.453 63.698 178.165 63.854C177.877 63.998 177.649 64.166 177.481 64.358C177.313 64.55 177.193 64.718 177.121 64.862V69.146C177.121 69.35 177.127 69.548 177.139 69.74C177.163 69.932 177.235 70.088 177.355 70.208C177.487 70.316 177.721 70.37 178.057 70.37C178.165 70.37 178.255 70.382 178.327 70.406C178.411 70.418 178.459 70.514 178.471 70.694C178.471 70.778 178.447 70.862 178.399 70.946C178.351 71.018 178.279 71.054 178.183 71.054C177.835 71.03 177.511 71.012 177.211 71C176.923 71 176.617 71 176.293 71C175.969 71 175.663 71 175.375 71C175.087 71.012 174.769 71.03 174.421 71.054ZM190.272 74.744C190.188 74.744 190.116 74.702 190.056 74.618C190.008 74.546 189.984 74.468 189.984 74.384C189.996 74.204 190.038 74.102 190.11 74.078C190.194 74.066 190.29 74.06 190.398 74.06C190.722 74.06 190.944 74 191.064 73.88C191.196 73.772 191.274 73.622 191.298 73.43C191.322 73.238 191.334 73.04 191.334 72.836V65.024C191.334 64.808 191.322 64.61 191.298 64.43C191.286 64.238 191.22 64.088 191.1 63.98C190.98 63.86 190.752 63.8 190.416 63.8C190.308 63.8 190.206 63.788 190.11 63.764C190.026 63.728 189.984 63.62 189.984 63.44C189.984 63.26 190.08 63.152 190.272 63.116C190.824 63.032 191.244 62.948 191.532 62.864C191.832 62.78 192.054 62.708 192.198 62.648C192.354 62.588 192.492 62.552 192.612 62.54C192.708 62.528 192.786 62.546 192.846 62.594C192.918 62.642 192.954 62.738 192.954 62.882V63.746H193.008C193.344 63.434 193.746 63.17 194.214 62.954C194.682 62.738 195.132 62.63 195.564 62.63C196.296 62.63 196.944 62.81 197.508 63.17C198.072 63.53 198.516 64.034 198.84 64.682C199.164 65.318 199.326 66.062 199.326 66.914C199.326 67.778 199.128 68.534 198.732 69.182C198.336 69.83 197.826 70.334 197.202 70.694C196.578 71.042 195.912 71.216 195.204 71.216C194.664 71.216 194.226 71.156 193.89 71.036C193.566 70.928 193.284 70.802 193.044 70.658H192.972V72.836C192.972 73.04 192.984 73.238 193.008 73.43C193.032 73.622 193.11 73.772 193.242 73.88C193.374 74 193.596 74.06 193.908 74.06C194.016 74.06 194.106 74.066 194.178 74.078C194.262 74.102 194.31 74.204 194.322 74.384C194.322 74.468 194.298 74.546 194.25 74.618C194.202 74.702 194.13 74.744 194.034 74.744C193.686 74.72 193.362 74.702 193.062 74.69C192.774 74.69 192.468 74.69 192.144 74.69C191.82 74.69 191.514 74.69 191.226 74.69C190.938 74.702 190.62 74.72 190.272 74.744ZM195.06 70.604C195.528 70.604 195.918 70.49 196.23 70.262C196.542 70.022 196.788 69.722 196.968 69.362C197.16 68.99 197.292 68.594 197.364 68.174C197.448 67.742 197.49 67.34 197.49 66.968C197.49 66.404 197.4 65.864 197.22 65.348C197.052 64.82 196.776 64.388 196.392 64.052C196.02 63.704 195.528 63.53 194.916 63.53C194.46 63.53 194.082 63.626 193.782 63.818C193.482 63.998 193.212 64.214 192.972 64.466V69.29C193.104 69.602 193.344 69.902 193.692 70.19C194.052 70.466 194.508 70.604 195.06 70.604ZM200.643 71.054C200.559 71.054 200.487 71.018 200.427 70.946C200.379 70.862 200.355 70.778 200.355 70.694C200.367 70.514 200.409 70.418 200.481 70.406C200.565 70.382 200.661 70.37 200.769 70.37C201.105 70.37 201.333 70.316 201.453 70.208C201.585 70.088 201.657 69.932 201.669 69.74C201.693 69.548 201.705 69.35 201.705 69.146V60.362C201.705 60.146 201.693 59.948 201.669 59.768C201.657 59.576 201.591 59.426 201.471 59.318C201.351 59.198 201.123 59.138 200.787 59.138C200.679 59.138 200.577 59.126 200.481 59.102C200.397 59.066 200.355 58.958 200.355 58.778C200.355 58.598 200.451 58.49 200.643 58.454C201.195 58.37 201.615 58.286 201.903 58.202C202.203 58.118 202.431 58.046 202.587 57.986C202.743 57.926 202.881 57.89 203.001 57.878C203.097 57.866 203.175 57.884 203.235 57.932C203.307 57.98 203.343 58.076 203.343 58.22V69.146C203.343 69.35 203.349 69.548 203.361 69.74C203.385 69.932 203.457 70.088 203.577 70.208C203.709 70.316 203.943 70.37 204.279 70.37C204.387 70.37 204.477 70.382 204.549 70.406C204.633 70.418 204.681 70.514 204.693 70.694C204.693 70.778 204.669 70.862 204.621 70.946C204.573 71.018 204.501 71.054 204.405 71.054C204.057 71.03 203.733 71.012 203.433 71C203.145 71 202.839 71 202.515 71C202.191 71 201.885 71 201.597 71C201.309 71.012 200.991 71.03 200.643 71.054ZM209.919 71.216C208.995 71.216 208.215 71.018 207.579 70.622C206.955 70.226 206.487 69.698 206.175 69.038C205.863 68.378 205.707 67.658 205.707 66.878C205.707 66.35 205.797 65.84 205.977 65.348C206.169 64.844 206.439 64.388 206.787 63.98C207.135 63.56 207.555 63.23 208.047 62.99C208.539 62.75 209.097 62.63 209.721 62.63C210.825 62.63 211.653 62.918 212.205 63.494C212.769 64.058 213.093 64.778 213.177 65.654C213.177 66.074 213.057 66.35 212.817 66.482C212.589 66.614 212.289 66.68 211.917 66.68H207.543C207.543 67.376 207.639 68 207.831 68.552C208.023 69.092 208.323 69.524 208.731 69.848C209.151 70.16 209.703 70.316 210.387 70.316C210.891 70.316 211.323 70.208 211.683 69.992C212.043 69.776 212.391 69.398 212.727 68.858C212.823 68.738 212.955 68.732 213.123 68.84C213.219 68.888 213.279 68.966 213.303 69.074C213.327 69.17 213.315 69.254 213.267 69.326C212.895 69.914 212.427 70.376 211.863 70.712C211.299 71.048 210.651 71.216 209.919 71.216ZM207.543 65.996H210.477C210.765 65.996 210.993 65.942 211.161 65.834C211.341 65.714 211.437 65.516 211.449 65.24C211.449 64.724 211.305 64.268 211.017 63.872C210.741 63.464 210.309 63.26 209.721 63.26C209.121 63.26 208.617 63.5 208.209 63.98C207.813 64.46 207.591 65.132 207.543 65.996ZM217.928 71.216C217.004 71.216 216.23 71.054 215.606 70.73C214.994 70.394 214.688 69.914 214.688 69.29C214.688 68.942 214.79 68.66 214.994 68.444C215.21 68.228 215.486 68.12 215.822 68.12C216.038 68.12 216.212 68.18 216.344 68.3C216.488 68.408 216.56 68.486 216.56 68.534C216.56 68.57 216.488 68.654 216.344 68.786C216.212 68.906 216.146 69.104 216.146 69.38C216.146 69.716 216.302 69.998 216.614 70.226C216.938 70.442 217.424 70.55 218.072 70.55C218.636 70.55 219.074 70.43 219.386 70.19C219.71 69.938 219.872 69.59 219.872 69.146C219.872 68.786 219.752 68.51 219.512 68.318C219.284 68.114 218.984 67.952 218.612 67.832C218.252 67.712 217.862 67.592 217.442 67.472C217.034 67.352 216.644 67.202 216.272 67.022C215.9 66.842 215.594 66.596 215.354 66.284C215.126 65.96 215.012 65.534 215.012 65.006C215.012 64.466 215.174 64.022 215.498 63.674C215.822 63.326 216.236 63.068 216.74 62.9C217.244 62.72 217.754 62.63 218.27 62.63C218.714 62.63 219.134 62.696 219.53 62.828C219.926 62.948 220.25 63.134 220.502 63.386C220.766 63.638 220.898 63.956 220.898 64.34C220.898 64.64 220.802 64.91 220.61 65.15C220.418 65.39 220.154 65.51 219.818 65.51C219.602 65.51 219.422 65.456 219.278 65.348C219.146 65.228 219.08 65.144 219.08 65.096C219.08 65.072 219.122 65.03 219.206 64.97C219.302 64.898 219.392 64.808 219.476 64.7C219.56 64.58 219.602 64.43 219.602 64.25C219.578 63.902 219.41 63.644 219.098 63.476C218.786 63.308 218.438 63.224 218.054 63.224C217.634 63.224 217.244 63.326 216.884 63.53C216.524 63.734 216.344 64.028 216.344 64.412C216.344 64.76 216.416 65.03 216.56 65.222C216.716 65.414 216.956 65.582 217.28 65.726C217.616 65.858 218.048 66.008 218.576 66.176C219.104 66.344 219.566 66.518 219.962 66.698C220.37 66.878 220.682 67.118 220.898 67.418C221.126 67.706 221.24 68.102 221.24 68.606C221.24 69.11 221.096 69.56 220.808 69.956C220.52 70.352 220.124 70.664 219.62 70.892C219.128 71.108 218.564 71.216 217.928 71.216ZM223.964 71.216C223.64 71.216 223.37 71.114 223.154 70.91C222.938 70.694 222.83 70.418 222.83 70.082C222.83 69.77 222.938 69.506 223.154 69.29C223.37 69.074 223.646 68.966 223.982 68.966C224.306 68.966 224.576 69.074 224.792 69.29C225.02 69.506 225.134 69.77 225.134 70.082C225.134 70.418 225.02 70.694 224.792 70.91C224.576 71.114 224.3 71.216 223.964 71.216ZM230.259 74.924C227.727 74.924 226.461 74.204 226.461 72.764C226.461 72.368 226.587 72.014 226.839 71.702C227.091 71.402 227.427 71.252 227.847 71.252C228.123 71.252 228.351 71.324 228.531 71.468C228.711 71.624 228.801 71.732 228.801 71.792C228.801 71.816 228.753 71.87 228.657 71.954C228.573 72.038 228.483 72.152 228.387 72.296C228.303 72.44 228.261 72.632 228.261 72.872C228.261 73.796 229.053 74.258 230.637 74.258C231.537 74.258 232.233 74.102 232.725 73.79C233.229 73.478 233.481 73.004 233.481 72.368C233.481 72.02 233.367 71.756 233.139 71.576C232.923 71.396 232.629 71.27 232.257 71.198C231.897 71.126 231.495 71.078 231.051 71.054C230.607 71.042 230.157 71.03 229.701 71.018C229.257 71.006 228.843 70.97 228.459 70.91C228.039 70.838 227.685 70.7 227.397 70.496C227.121 70.28 226.983 69.932 226.983 69.452C226.983 69.008 227.139 68.624 227.451 68.3C227.775 67.964 228.255 67.796 228.891 67.796C228.123 67.496 227.607 67.13 227.343 66.698C227.091 66.266 226.965 65.822 226.965 65.366C226.965 64.85 227.109 64.388 227.397 63.98C227.697 63.56 228.105 63.23 228.621 62.99C229.149 62.738 229.755 62.612 230.439 62.612C230.775 62.612 231.123 62.642 231.483 62.702C231.855 62.75 232.173 62.84 232.437 62.972L234.903 62.504C235.035 62.492 235.125 62.534 235.173 62.63C235.221 62.726 235.245 62.828 235.245 62.936C235.245 63.092 235.221 63.248 235.173 63.404C235.125 63.548 235.059 63.62 234.975 63.62L233.193 63.548V63.584C233.397 63.788 233.571 64.058 233.715 64.394C233.859 64.73 233.931 65.048 233.931 65.348C233.931 65.924 233.763 66.422 233.427 66.842C233.103 67.262 232.683 67.586 232.167 67.814C231.663 68.03 231.135 68.138 230.583 68.138H229.791C229.167 68.138 228.711 68.198 228.423 68.318C228.147 68.438 228.009 68.636 228.009 68.912C228.009 69.128 228.081 69.296 228.225 69.416C228.381 69.524 228.657 69.59 229.053 69.614L231.519 69.704C232.803 69.752 233.715 69.956 234.255 70.316C234.807 70.676 235.083 71.21 235.083 71.918C235.083 72.554 234.879 73.094 234.471 73.538C234.075 73.994 233.511 74.336 232.779 74.564C232.059 74.804 231.219 74.924 230.259 74.924ZM230.439 67.616C230.991 67.616 231.441 67.424 231.789 67.04C232.137 66.644 232.311 66.08 232.311 65.348C232.311 64.676 232.131 64.148 231.771 63.764C231.423 63.368 230.973 63.17 230.421 63.17C229.893 63.17 229.449 63.362 229.089 63.746C228.741 64.118 228.567 64.64 228.567 65.312C228.567 66.044 228.741 66.614 229.089 67.022C229.449 67.418 229.899 67.616 230.439 67.616ZM236.278 71.054C236.194 71.054 236.122 71.018 236.062 70.946C236.014 70.862 235.99 70.778 235.99 70.694C236.014 70.514 236.062 70.418 236.134 70.406C236.206 70.382 236.302 70.37 236.422 70.37C236.758 70.37 236.986 70.316 237.106 70.208C237.226 70.088 237.292 69.932 237.304 69.74C237.328 69.548 237.34 69.35 237.34 69.146V65.024C237.34 64.808 237.328 64.61 237.304 64.43C237.292 64.238 237.226 64.088 237.106 63.98C236.986 63.86 236.758 63.8 236.422 63.8C236.314 63.8 236.212 63.788 236.116 63.764C236.032 63.728 235.99 63.62 235.99 63.44C235.99 63.26 236.086 63.152 236.278 63.116C236.83 63.032 237.25 62.948 237.538 62.864C237.838 62.78 238.066 62.708 238.222 62.648C238.378 62.588 238.516 62.552 238.636 62.54C238.732 62.528 238.81 62.546 238.87 62.594C238.942 62.642 238.978 62.738 238.978 62.882V69.146C238.978 69.35 238.984 69.548 238.996 69.74C239.02 69.932 239.092 70.088 239.212 70.208C239.344 70.316 239.578 70.37 239.914 70.37C240.022 70.37 240.112 70.382 240.184 70.406C240.268 70.418 240.316 70.514 240.328 70.694C240.328 70.778 240.304 70.862 240.256 70.946C240.208 71.018 240.136 71.054 240.04 71.054C239.692 71.03 239.368 71.012 239.068 71C238.78 71 238.474 71 238.15 71C237.826 71 237.52 71 237.232 71C236.944 71.012 236.626 71.03 236.278 71.054ZM238.06 60.542C237.724 60.542 237.442 60.44 237.214 60.236C236.986 60.02 236.872 59.756 236.872 59.444C236.872 59.168 237.01 58.922 237.286 58.706C237.562 58.49 237.874 58.382 238.222 58.382C238.522 58.382 238.768 58.49 238.96 58.706C239.152 58.91 239.248 59.174 239.248 59.498C239.248 59.786 239.134 60.032 238.906 60.236C238.678 60.44 238.396 60.542 238.06 60.542ZM244.54 71.306C244.18 71.306 243.838 71.216 243.514 71.036C243.19 70.856 242.92 70.58 242.704 70.208C242.5 69.836 242.398 69.368 242.398 68.804V63.512L241.354 63.548C241.27 63.548 241.204 63.518 241.156 63.458C241.12 63.386 241.102 63.308 241.102 63.224C241.102 62.984 241.186 62.846 241.354 62.81C241.798 62.726 242.134 62.588 242.362 62.396C242.59 62.192 242.764 61.952 242.884 61.676C243.016 61.4 243.136 61.1 243.244 60.776C243.28 60.68 243.334 60.62 243.406 60.596C243.478 60.56 243.556 60.542 243.64 60.542C243.712 60.542 243.79 60.56 243.874 60.596C243.97 60.632 244.018 60.698 244.018 60.794L243.892 62.846L245.998 62.72C246.106 62.708 246.178 62.738 246.214 62.81C246.25 62.882 246.268 62.966 246.268 63.062C246.268 63.182 246.244 63.302 246.196 63.422C246.16 63.542 246.112 63.602 246.052 63.602L244.036 63.548V69.02C244.036 69.368 244.108 69.686 244.252 69.974C244.408 70.262 244.684 70.406 245.08 70.406C245.212 70.406 245.362 70.394 245.53 70.37C245.698 70.346 245.878 70.292 246.07 70.208C246.118 70.184 246.166 70.166 246.214 70.154C246.262 70.13 246.31 70.118 246.358 70.118C246.454 70.118 246.526 70.16 246.574 70.244C246.622 70.316 246.664 70.394 246.7 70.478C246.736 70.586 246.706 70.67 246.61 70.73C246.238 70.97 245.896 71.126 245.584 71.198C245.272 71.27 244.924 71.306 244.54 71.306ZM248.175 71.054C248.079 71.054 248.007 71.018 247.959 70.946C247.911 70.862 247.887 70.778 247.887 70.694C247.899 70.514 247.941 70.418 248.013 70.406C248.097 70.382 248.193 70.37 248.301 70.37C248.637 70.37 248.865 70.316 248.985 70.208C249.117 70.088 249.189 69.932 249.201 69.74C249.225 69.548 249.237 69.35 249.237 69.146V60.362C249.237 60.146 249.225 59.948 249.201 59.768C249.189 59.576 249.123 59.426 249.003 59.318C248.883 59.198 248.655 59.138 248.319 59.138C248.211 59.138 248.109 59.126 248.013 59.102C247.929 59.066 247.887 58.958 247.887 58.778C247.887 58.598 247.983 58.49 248.175 58.454C248.727 58.37 249.147 58.286 249.435 58.202C249.735 58.118 249.963 58.046 250.119 57.986C250.275 57.914 250.413 57.878 250.533 57.878C250.629 57.878 250.707 57.902 250.767 57.95C250.839 57.986 250.875 58.076 250.875 58.22V64.016H250.911C251.151 63.788 251.397 63.572 251.649 63.368C251.901 63.152 252.195 62.978 252.531 62.846C252.879 62.702 253.305 62.63 253.809 62.63C254.625 62.63 255.273 62.876 255.753 63.368C256.233 63.86 256.473 64.508 256.473 65.312V69.146C256.473 69.35 256.479 69.548 256.491 69.74C256.515 69.932 256.587 70.088 256.707 70.208C256.839 70.316 257.067 70.37 257.391 70.37C257.511 70.37 257.607 70.382 257.679 70.406C257.751 70.418 257.793 70.514 257.805 70.694C257.805 70.778 257.781 70.862 257.733 70.946C257.697 71.018 257.631 71.054 257.535 71.054C257.187 71.03 256.863 71.012 256.563 71C256.263 71 255.957 71 255.645 71C255.321 71 255.015 71 254.727 71C254.439 71.012 254.121 71.03 253.773 71.054C253.677 71.054 253.605 71.018 253.557 70.946C253.509 70.862 253.485 70.778 253.485 70.694C253.497 70.514 253.539 70.418 253.611 70.406C253.683 70.382 253.779 70.37 253.899 70.37C254.235 70.37 254.463 70.316 254.583 70.208C254.715 70.088 254.787 69.932 254.799 69.74C254.811 69.548 254.817 69.35 254.817 69.146V65.33C254.817 64.73 254.637 64.298 254.277 64.034C253.917 63.758 253.527 63.62 253.107 63.62C252.699 63.62 252.339 63.698 252.027 63.854C251.715 63.998 251.463 64.166 251.271 64.358C251.079 64.55 250.947 64.718 250.875 64.862V69.146C250.875 69.35 250.881 69.548 250.893 69.74C250.917 69.932 250.989 70.088 251.109 70.208C251.241 70.316 251.469 70.37 251.793 70.37C251.913 70.37 252.009 70.382 252.081 70.406C252.153 70.418 252.195 70.514 252.207 70.694C252.207 70.778 252.183 70.862 252.135 70.946C252.099 71.018 252.033 71.054 251.937 71.054C251.589 71.03 251.265 71.012 250.965 71C250.665 71 250.359 71 250.047 71C249.723 71 249.417 71 249.129 71C248.841 71.012 248.523 71.03 248.175 71.054ZM262.287 71.216C261.471 71.216 260.823 70.97 260.343 70.478C259.863 69.986 259.623 69.338 259.623 68.534V65.204C259.623 64.988 259.611 64.79 259.587 64.61C259.575 64.418 259.509 64.268 259.389 64.16C259.269 64.04 259.041 63.98 258.705 63.98C258.597 63.98 258.495 63.968 258.399 63.944C258.315 63.908 258.273 63.8 258.273 63.62C258.273 63.44 258.369 63.332 258.561 63.296C259.113 63.212 259.533 63.128 259.821 63.044C260.121 62.96 260.349 62.888 260.505 62.828C260.661 62.768 260.799 62.732 260.919 62.72C261.015 62.708 261.093 62.726 261.153 62.774C261.225 62.822 261.261 62.918 261.261 63.062V68.516C261.261 68.912 261.345 69.236 261.513 69.488C261.693 69.74 261.915 69.926 262.179 70.046C262.443 70.166 262.713 70.226 262.989 70.226C263.409 70.226 263.775 70.154 264.087 70.01C264.399 69.854 264.651 69.68 264.843 69.488C265.035 69.284 265.161 69.116 265.221 68.984V65.204C265.221 64.988 265.209 64.79 265.185 64.61C265.173 64.418 265.107 64.268 264.987 64.16C264.867 64.04 264.639 63.98 264.303 63.98C264.195 63.98 264.093 63.968 263.997 63.944C263.913 63.908 263.871 63.8 263.871 63.62C263.871 63.44 263.967 63.332 264.159 63.296C264.711 63.212 265.131 63.128 265.419 63.044C265.719 62.96 265.947 62.888 266.103 62.828C266.259 62.768 266.397 62.732 266.517 62.72C266.613 62.708 266.691 62.726 266.751 62.774C266.823 62.822 266.859 62.918 266.859 63.062V69.29C266.859 69.998 267.333 70.352 268.281 70.352C268.413 70.352 268.497 70.388 268.533 70.46C268.569 70.532 268.587 70.61 268.587 70.694C268.587 70.862 268.485 70.964 268.281 71L265.383 71.198C265.299 71.198 265.251 71.162 265.239 71.09C265.227 71.018 265.221 70.934 265.221 70.838V69.83H265.185C264.957 70.046 264.711 70.262 264.447 70.478C264.195 70.694 263.895 70.868 263.547 71C263.211 71.144 262.791 71.216 262.287 71.216ZM270.435 71.252C270.327 71.252 270.243 71.216 270.183 71.144C270.123 71.072 270.093 70.988 270.093 70.892V60.38C270.093 60.164 270.081 59.966 270.057 59.786C270.045 59.594 269.979 59.444 269.859 59.336C269.739 59.216 269.511 59.156 269.175 59.156C269.067 59.156 268.965 59.144 268.869 59.12C268.785 59.084 268.743 58.976 268.743 58.796C268.743 58.616 268.839 58.508 269.031 58.472C269.583 58.388 270.003 58.304 270.291 58.22C270.591 58.136 270.819 58.064 270.975 58.004C271.131 57.944 271.269 57.908 271.389 57.896C271.485 57.884 271.563 57.902 271.623 57.95C271.695 57.998 271.731 58.094 271.731 58.238V63.674H271.785C272.145 63.314 272.547 63.05 272.991 62.882C273.435 62.714 273.861 62.63 274.269 62.63C274.977 62.63 275.613 62.81 276.177 63.17C276.753 63.53 277.209 64.028 277.545 64.664C277.881 65.288 278.049 66.02 278.049 66.86C278.049 67.676 277.857 68.414 277.473 69.074C277.089 69.734 276.585 70.256 275.961 70.64C275.337 71.024 274.659 71.216 273.927 71.216C272.859 71.216 271.935 70.922 271.155 70.334H271.065C270.981 70.514 270.897 70.712 270.813 70.928C270.741 71.144 270.615 71.252 270.435 71.252ZM273.765 70.604C274.485 70.604 275.073 70.274 275.529 69.614C275.985 68.954 276.213 68.06 276.213 66.932C276.213 66.368 276.123 65.828 275.943 65.312C275.775 64.796 275.499 64.37 275.115 64.034C274.743 63.698 274.251 63.53 273.639 63.53C273.231 63.53 272.871 63.602 272.559 63.746C272.247 63.89 271.971 64.094 271.731 64.358V69.11C271.767 69.278 271.863 69.482 272.019 69.722C272.187 69.95 272.415 70.154 272.703 70.334C272.991 70.514 273.345 70.604 273.765 70.604ZM280.566 71.216C280.242 71.216 279.972 71.114 279.756 70.91C279.54 70.694 279.432 70.418 279.432 70.082C279.432 69.77 279.54 69.506 279.756 69.29C279.972 69.074 280.248 68.966 280.584 68.966C280.908 68.966 281.178 69.074 281.394 69.29C281.622 69.506 281.736 69.77 281.736 70.082C281.736 70.418 281.622 70.694 281.394 70.91C281.178 71.114 280.902 71.216 280.566 71.216ZM283.458 71.054C283.374 71.054 283.302 71.018 283.242 70.946C283.194 70.862 283.17 70.778 283.17 70.694C283.194 70.514 283.242 70.418 283.314 70.406C283.386 70.382 283.482 70.37 283.602 70.37C283.938 70.37 284.166 70.316 284.286 70.208C284.406 70.088 284.472 69.932 284.484 69.74C284.508 69.548 284.52 69.35 284.52 69.146V65.024C284.52 64.808 284.508 64.61 284.484 64.43C284.472 64.238 284.406 64.088 284.286 63.98C284.166 63.86 283.938 63.8 283.602 63.8C283.494 63.8 283.392 63.788 283.296 63.764C283.212 63.728 283.17 63.62 283.17 63.44C283.17 63.26 283.266 63.152 283.458 63.116C284.01 63.032 284.43 62.948 284.718 62.864C285.018 62.78 285.246 62.708 285.402 62.648C285.558 62.588 285.696 62.552 285.816 62.54C285.912 62.528 285.99 62.546 286.05 62.594C286.122 62.642 286.158 62.738 286.158 62.882V69.146C286.158 69.35 286.164 69.548 286.176 69.74C286.2 69.932 286.272 70.088 286.392 70.208C286.524 70.316 286.758 70.37 287.094 70.37C287.202 70.37 287.292 70.382 287.364 70.406C287.448 70.418 287.496 70.514 287.508 70.694C287.508 70.778 287.484 70.862 287.436 70.946C287.388 71.018 287.316 71.054 287.22 71.054C286.872 71.03 286.548 71.012 286.248 71C285.96 71 285.654 71 285.33 71C285.006 71 284.7 71 284.412 71C284.124 71.012 283.806 71.03 283.458 71.054ZM285.24 60.542C284.904 60.542 284.622 60.44 284.394 60.236C284.166 60.02 284.052 59.756 284.052 59.444C284.052 59.168 284.19 58.922 284.466 58.706C284.742 58.49 285.054 58.382 285.402 58.382C285.702 58.382 285.948 58.49 286.14 58.706C286.332 58.91 286.428 59.174 286.428 59.498C286.428 59.786 286.314 60.032 286.086 60.236C285.858 60.44 285.576 60.542 285.24 60.542ZM292.711 71.216C291.871 71.216 291.133 71.018 290.497 70.622C289.873 70.226 289.387 69.71 289.039 69.074C288.691 68.438 288.517 67.76 288.517 67.04C288.517 66.332 288.643 65.702 288.895 65.15C289.147 64.598 289.477 64.136 289.885 63.764C290.305 63.392 290.761 63.11 291.253 62.918C291.745 62.726 292.231 62.63 292.711 62.63C293.551 62.63 294.283 62.828 294.907 63.224C295.543 63.62 296.035 64.136 296.383 64.772C296.731 65.408 296.905 66.086 296.905 66.806C296.905 67.514 296.773 68.144 296.509 68.696C296.257 69.248 295.921 69.71 295.501 70.082C295.093 70.454 294.643 70.736 294.151 70.928C293.659 71.12 293.179 71.216 292.711 71.216ZM292.711 70.55C293.299 70.55 293.761 70.376 294.097 70.028C294.445 69.68 294.691 69.224 294.835 68.66C294.991 68.084 295.069 67.466 295.069 66.806C295.069 66.17 294.991 65.588 294.835 65.06C294.679 64.532 294.427 64.106 294.079 63.782C293.731 63.458 293.275 63.296 292.711 63.296C292.123 63.296 291.655 63.47 291.307 63.818C290.959 64.154 290.713 64.604 290.569 65.168C290.425 65.72 290.353 66.332 290.353 67.004C290.353 67.628 290.425 68.21 290.569 68.75C290.725 69.29 290.977 69.728 291.325 70.064C291.673 70.388 292.135 70.55 292.711 70.55Z" fill="#202124"/>
<g clip-path="url(#clip1_746_2429)">
<g filter="url(#filter1_d_746_2429)">
<rect y="734.011" width="375" height="77.9889" fill="white"/>
</g>
<path d="M22 756.006C22 756.393 22.1786 756.78 22.4945 757.064L31.5594 765.562C31.8891 765.858 32.2462 766 32.6445 766C33.5098 766 34.1416 765.42 34.1416 764.633C34.1416 764.221 33.9768 763.872 33.6883 763.614L30.598 760.674L26.6149 757.257L29.8151 757.438H46.4617C47.3682 757.438 48 756.845 48 756.006C48 755.155 47.3682 754.562 46.4617 754.562H29.8151L26.6286 754.743L30.598 751.326L33.6883 748.386C33.9768 748.128 34.1416 747.779 34.1416 747.367C34.1416 746.58 33.5098 746 32.6445 746C32.2462 746 31.8753 746.142 31.5182 746.464L22.4945 754.936C22.1786 755.22 22 755.607 22 756.006Z" fill="#80858A"/>
<path d="M122 756.006C122 755.607 121.821 755.22 121.506 754.936L112.482 746.464C112.125 746.142 111.754 746 111.369 746C110.49 746 109.858 746.58 109.858 747.367C109.858 747.779 110.037 748.128 110.312 748.386L113.402 751.326L117.385 754.743L114.199 754.562H97.552C96.6318 754.562 96 755.155 96 756.006C96 756.845 96.6318 757.438 97.552 757.438H114.199L117.385 757.257L113.402 760.674L110.312 763.614C110.037 763.872 109.858 764.221 109.858 764.633C109.858 765.42 110.49 766 111.369 766C111.754 766 112.125 765.858 112.454 765.562L121.506 757.064C121.821 756.78 122 756.393 122 756.006Z" fill="#80858A"/>
<g clip-path="url(#clip2_746_2429)">
<circle cx="188" cy="756" r="18" fill="#E8EAED"/>
<path d="M177 756C177 756.815 177.67 757.472 178.472 757.472H186.528V765.528C186.528 766.33 187.198 767 188 767C188.802 767 189.472 766.33 189.472 765.528V757.472H197.528C198.33 757.472 199 756.815 199 756C199 755.198 198.33 754.528 197.528 754.528H189.472V746.472C189.472 745.67 188.802 745 188 745C187.198 745 186.528 745.67 186.528 746.472V754.528H178.472C177.67 754.528 177 755.198 177 756Z" fill="#80858A"/>
</g>
<path d="M265.691 756.269L266.77 756.295C267.151 756.295 267.45 756.291 267.667 756.282C267.693 755.571 267.706 754.947 267.706 754.41L267.693 753.136C267.693 753.023 267.663 752.967 267.602 752.967L267.446 753.045C267.177 753.34 266.891 753.725 266.588 754.202C266.293 754.679 266.064 755.086 265.899 755.424L265.652 755.918C265.617 755.996 265.6 756.074 265.6 756.152C265.6 756.23 265.63 756.269 265.691 756.269ZM267.602 757.621L266.484 757.608L264.144 757.634C263.953 757.634 263.858 757.547 263.858 757.374L263.884 757.231C264.439 755.862 265.37 754.306 266.679 752.564C267.095 752.001 267.481 751.524 267.836 751.134L268.005 750.965C268.23 750.731 268.564 750.614 269.006 750.614C269.24 750.614 269.357 750.683 269.357 750.822C269.218 752.044 269.149 753.288 269.149 754.553V756.204C269.262 756.195 269.383 756.187 269.513 756.178L269.812 756.152C269.873 756.152 269.912 756.152 269.929 756.152C269.998 756.152 270.033 756.174 270.033 756.217C270.033 756.364 269.959 756.603 269.812 756.932C269.665 757.261 269.513 757.461 269.357 757.53L269.175 757.569C269.192 758.548 269.236 759.207 269.305 759.545C269.305 759.77 269.132 759.935 268.785 760.039C268.447 760.143 268.122 760.195 267.81 760.195C267.507 760.195 267.355 760.126 267.355 759.987C267.355 759.97 267.381 759.796 267.433 759.467C267.485 759.138 267.541 758.522 267.602 757.621Z" fill="#80858A"/>
<rect x="256" y="745" width="22" height="21.9966" rx="5" stroke="#80858A" stroke-width="2"/>
<path fill-rule="evenodd" clip-rule="evenodd" d="M334 756C334 757.657 332.657 759 331 759C329.343 759 328 757.657 328 756C328 754.343 329.343 753 331 753C332.657 753 334 754.343 334 756ZM344 756C344 757.657 342.657 759 341 759C339.343 759 338 757.657 338 756C338 754.343 339.343 753 341 753C342.657 753 344 754.343 344 756ZM351 759C352.657 759 354 757.657 354 756C354 754.343 352.657 753 351 753C349.343 753 348 754.343 348 756C348 757.657 349.343 759 351 759Z" fill="#80858A"/>
</g>
<path opacity="0.35" d="M336.5 20C336.5 18.8034 337.47 17.8334 338.667 17.8334H355.333C356.53 17.8334 357.5 18.8034 357.5 20V26C357.5 27.1967 356.53 28.1667 355.333 28.1667H338.667C337.47 28.1667 336.5 27.1967 336.5 26V20Z" stroke="black"/>
<path opacity="0.4" d="M359 21V25C359.805 24.6613 360.328 23.8732 360.328 23C360.328 22.1269 359.805 21.3388 359 21Z" fill="black"/>
<path d="M338 20.6667C338 19.9303 338.597 19.3334 339.333 19.3334H354.667C355.403 19.3334 356 19.9303 356 20.6667V25.3334C356 26.0698 355.403 26.6667 354.667 26.6667H339.333C338.597 26.6667 338 26.0698 338 25.3334V20.6667Z" fill="black"/>
<path fill-rule="evenodd" clip-rule="evenodd" d="M323.33 19.608C325.546 19.6081 327.677 20.4596 329.283 21.9863C329.404 22.1042 329.597 22.1027 329.716 21.983L330.872 20.8163C330.933 20.7556 330.966 20.6734 330.966 20.5878C330.965 20.5022 330.931 20.4204 330.87 20.3603C326.655 16.3208 320.005 16.3208 315.79 20.3603C315.729 20.4203 315.694 20.5021 315.693 20.5877C315.693 20.6733 315.726 20.7556 315.787 20.8163L316.943 21.983C317.062 22.1029 317.255 22.1044 317.376 21.9863C318.982 20.4595 321.114 19.608 323.33 19.608ZM323.33 23.4037C324.547 23.4036 325.721 23.8561 326.624 24.6733C326.746 24.7893 326.938 24.7868 327.057 24.6677L328.212 23.501C328.273 23.4398 328.307 23.3568 328.306 23.2705C328.305 23.1843 328.269 23.102 328.207 23.042C325.459 20.4856 321.203 20.4856 318.455 23.042C318.393 23.102 318.357 23.1843 318.357 23.2706C318.356 23.3569 318.39 23.4399 318.451 23.501L319.605 24.6677C319.724 24.7868 319.916 24.7893 320.038 24.6733C320.94 23.8567 322.113 23.4042 323.33 23.4037ZM325.643 25.9575C325.645 26.044 325.611 26.1274 325.549 26.188L323.552 28.2037C323.493 28.2629 323.413 28.2963 323.33 28.2963C323.247 28.2963 323.167 28.2629 323.108 28.2037L321.111 26.188C321.049 26.1274 321.015 26.0439 321.017 25.9574C321.019 25.8709 321.056 25.789 321.12 25.731C322.396 24.6521 324.264 24.6521 325.54 25.731C325.604 25.7891 325.641 25.871 325.643 25.9575Z" fill="black"/>
<path fill-rule="evenodd" clip-rule="evenodd" d="M309.667 17.6666H308.667C308.114 17.6666 307.667 18.1143 307.667 18.6666V27.3333C307.667 27.8856 308.114 28.3333 308.667 28.3333H309.667C310.219 28.3333 310.667 27.8856 310.667 27.3333V18.6666C310.667 18.1143 310.219 17.6666 309.667 17.6666ZM304 20H305C305.552 20 306 20.4477 306 21V27.3333C306 27.8856 305.552 28.3333 305 28.3333H304C303.448 28.3333 303 27.8856 303 27.3333V21C303 20.4477 303.448 20 304 20ZM300.333 22.3333H299.333C298.781 22.3333 298.333 22.781 298.333 23.3333V27.3333C298.333 27.8856 298.781 28.3333 299.333 28.3333H300.333C300.885 28.3333 301.333 27.8856 301.333 27.3333V23.3333C301.333 22.781 300.885 22.3333 300.333 22.3333ZM295.667 24.3333H294.667C294.114 24.3333 293.667 24.781 293.667 25.3333V27.3333C293.667 27.8856 294.114 28.3333 294.667 28.3333H295.667C296.219 28.3333 296.667 27.8856 296.667 27.3333V25.3333C296.667 24.781 296.219 24.3333 295.667 24.3333Z" fill="black"/>
<path d="M37.3208 28.2563C40.0088 28.2563 41.6055 26.1543 41.6055 22.5947C41.6055 21.2544 41.3491 20.1265 40.8584 19.2549C40.1479 17.8999 38.9248 17.1675 37.3794 17.1675C35.0796 17.1675 33.4536 18.7129 33.4536 20.8809C33.4536 22.917 34.9185 24.3965 36.9326 24.3965C38.1704 24.3965 39.1738 23.8179 39.6719 22.8145H39.6938C39.6938 22.8145 39.7231 22.8145 39.7305 22.8145C39.7451 22.8145 39.7964 22.8145 39.7964 22.8145C39.7964 25.2314 38.8809 26.6743 37.3354 26.6743C36.4272 26.6743 35.7241 26.1763 35.4824 25.3779H33.6001C33.915 27.1138 35.3872 28.2563 37.3208 28.2563ZM37.3867 22.895C36.1709 22.895 35.3066 22.0308 35.3066 20.8223C35.3066 19.6431 36.2148 18.7422 37.394 18.7422C38.5732 18.7422 39.4814 19.6577 39.4814 20.8516C39.4814 22.0308 38.5952 22.895 37.3867 22.895Z" fill="black"/>
<path d="M44.6966 28.1538C45.3924 28.1538 45.8685 27.6558 45.8685 26.9966C45.8685 26.3301 45.3924 25.8394 44.6966 25.8394C44.0081 25.8394 43.5247 26.3301 43.5247 26.9966C43.5247 27.6558 44.0081 28.1538 44.6966 28.1538ZM44.6966 22.6606C45.3924 22.6606 45.8685 22.1699 45.8685 21.5107C45.8685 20.8442 45.3924 20.3535 44.6966 20.3535C44.0081 20.3535 43.5247 20.8442 43.5247 21.5107C43.5247 22.1699 44.0081 22.6606 44.6966 22.6606Z" fill="black"/>
<path d="M52.7242 28H54.5333V26.0298H55.9615V24.4331H54.5333V17.4312H51.8673C49.9996 20.2437 48.5128 22.5947 47.5606 24.3452V26.0298H52.7242V28ZM49.3111 24.3672C50.5416 22.1992 51.6402 20.4634 52.651 18.9692H52.7535V24.4771H49.3111V24.3672Z" fill="black"/>
<path d="M59.9901 28H61.8798V17.4312H59.9975L57.2362 19.3647V21.1812L59.8656 19.3354H59.9901V28Z" fill="black"/>
<rect x="121" y="799" width="134" height="5" rx="2.5" fill="black"/>
</g>
<defs>
<filter id="filter0_d_746_2429" x="0" y="38" width="375" height="54.4" filterUnits="userSpaceOnUse" color-interpolation-filters="sRGB">
<feFlood flood-opacity="0" result="BackgroundImageFix"/>
<feColorMatrix in="SourceAlpha" type="matrix" values="0 0 0 0 0 0 0 0 0 0 0 0 0 0 0 0 0 0 127 0" result="hardAlpha"/>
<feOffset dy="0.4"/>
<feColorMatrix type="matrix" values="0 0 0 0 0.8 0 0 0 0 0.8 0 0 0 0 0.8 0 0 0 1 0"/>
<feBlend mode="normal" in2="BackgroundImageFix" result="effect1_dropShadow_746_2429"/>
<feBlend mode="normal" in="SourceGraphic" in2="effect1_dropShadow_746_2429" result="shape"/>
</filter>
<filter id="filter1_d_746_2429" x="0" y="733.611" width="375" height="78.389" filterUnits="userSpaceOnUse" color-interpolation-filters="sRGB">
<feFlood flood-opacity="0" result="BackgroundImageFix"/>
<feColorMatrix in="SourceAlpha" type="matrix" values="0 0 0 0 0 0 0 0 0 0 0 0 0 0 0 0 0 0 127 0" result="hardAlpha"/>
<feOffset dy="-0.4"/>
<feColorMatrix type="matrix" values="0 0 0 0 0.756863 0 0 0 0 0.756863 0 0 0 0 0.756863 0 0 0 1 0"/>
<feBlend mode="normal" in2="BackgroundImageFix" result="effect1_dropShadow_746_2429"/>
<feBlend mode="normal" in="SourceGraphic" in2="effect1_dropShadow_746_2429" result="shape"/>
</filter>
<clipPath id="clip0_746_2429">
<rect width="375" height="812" fill="white"/>
</clipPath>
<clipPath id="clip1_746_2429">
<rect width="375" height="83" fill="white" transform="translate(0 729)"/>
</clipPath>
<clipPath id="clip2_746_2429">
<rect width="36" height="36" fill="white" transform="translate(170 738)"/>
</clipPath>
</defs>
</svg>
